HIERARCHY
ROOT hip
{
	OFFSET 0.000000 0.000000 0.000000 
	CHANNELS 6 Xposition Yposition Zposition Xrotation Zrotation Yrotation
	JOINT abdomen
	{
		OFFSET 0.000000 3.402643 0.000000 
		CHANNELS 3 Xrotation Zrotation Yrotation
		JOINT chest
		{
			OFFSET 0.000000 8.438565 -0.680529 
			CHANNELS 3 Xrotation Zrotation Yrotation
			JOINT neck
			{
				OFFSET 0.000000 10.207942 -0.272212 
				CHANNELS 3 Xrotation Zrotation Yrotation
				JOINT head
				{
					OFFSET 0.000000 3.130431 0.000000 
					CHANNELS 3 Xrotation Zrotation Yrotation
					End Site
					{
						OFFSET 0.000000 3.130435 0.000000 
					}
				}
			}
			JOINT lCollar
			{
				OFFSET 3.470700 6.669187 -0.816635 
				CHANNELS 3 Yrotation Zrotation Xrotation
				JOINT lShldr
				{
					OFFSET 3.198488 0.000000 0.000000 
					CHANNELS 3 Zrotation Yrotation Xrotation
					JOINT lForeArm
					{
						OFFSET 10.139888 0.000000 0.000000 
						CHANNELS 3 Yrotation Zrotation Xrotation
						JOINT lHand
						{
							OFFSET 8.370511 0.000000 0.000000 
							CHANNELS 3 Zrotation Yrotation Xrotation
							End Site
							{
								OFFSET 4.083176 0.000000 0.000000 
							}
						}
					}
				}
			}
			JOINT rCollar
			{
				OFFSET -3.470700 6.669187 -0.816635 
				CHANNELS 3 Yrotation Zrotation Xrotation
				JOINT rShldr
				{
					OFFSET -3.198488 0.000000 0.000000 
					CHANNELS 3 Zrotation Yrotation Xrotation
					JOINT rForeArm
					{
						OFFSET -10.139888 0.000000 0.000000 
						CHANNELS 3 Yrotation Zrotation Xrotation
						JOINT rHand
						{
							OFFSET -8.370511 0.000000 0.000000 
							CHANNELS 3 Zrotation Yrotation Xrotation
							End Site
							{
								OFFSET -4.083176 0.000000 0.000000 
							}
						}
					}
				}
			}
		}
	}
	JOINT lThigh
	{
		OFFSET 5.308129 -1.633274 1.361059 
		CHANNELS 3 Xrotation Zrotation Yrotation
		JOINT lShin
		{
			OFFSET -2.041588 -20.007561 0.000000 
			CHANNELS 3 Xrotation Zrotation Yrotation
			JOINT lFoot
			{
				OFFSET 0.000000 -19.190928 -1.224953 
				CHANNELS 3 Xrotation Yrotation Zrotation
				End Site
				{
					OFFSET 0.000000 -2.449906 4.627600 
				}
			}
		}
	}
	JOINT rThigh
	{
		OFFSET -5.308129 -1.633274 1.361059 
		CHANNELS 3 Xrotation Zrotation Yrotation
		JOINT rShin
		{
			OFFSET 2.041588 -20.007561 0.000000 
			CHANNELS 3 Xrotation Zrotation Yrotation
			JOINT rFoot
			{
				OFFSET 0.000000 -19.190928 -1.224953 
				CHANNELS 3 Xrotation Yrotation Zrotation
				End Site
				{
					OFFSET 0.000000 -2.449906 4.627600 
				}
			}
		}
	}
}
MOTION
Frames: 13
Frame Time: 0.033333
-40.561687 8.092637 -11.094214 -48.129669 -6.680494 -2.979774 0.000000 0.000000 0.000000 44.508125 0.820158 1.113447 24.542597 4.795807 7.223370 -15.932804 -4.589626 13.363551 -4.489987 -5.649334 24.999933 -85.900589 -87.942947 23.576956 -2.019999 -9.140400 30.642691 26.313639 -2.104165 -4.702929 3.780228 9.594240 24.990301 -16.553082 88.407646 -56.974365 0.182667 13.378407 41.993393 -35.840015 3.576458 -5.655019 -59.674133 41.244308 80.916695 124.658112 14.532856 3.652076 -22.843449 -3.749423 18.158369 -55.254005 -51.054668 -68.894562 117.558937 -1.614699 25.204535 23.555960 -2.410049 -11.755345 
-40.570087 8.065455 -11.064123 -48.032051 -6.759217 -2.862257 0.000000 0.000000 0.000000 44.451706 0.908023 1.142744 24.500412 4.931546 7.214480 -15.785069 -4.850101 13.643221 -4.413966 -5.720605 24.995768 -81.286148 -87.955276 19.527399 -1.978285 -9.476673 30.039839 26.794777 -2.870698 -4.904356 3.722757 9.695724 24.989275 -17.417173 88.348198 -57.803596 0.175026 13.412314 40.999542 -35.338245 4.792822 -5.973903 -60.031796 41.267288 80.805367 124.820419 14.561542 4.136833 -22.753132 -3.820038 18.540415 -55.204166 -51.144962 -69.194839 117.665871 -1.682700 25.123938 23.426020 -2.407187 -11.714200 
-40.571846 8.089547 -11.052440 -47.938068 -6.719799 -2.931285 0.000000 0.000000 0.000000 44.471081 0.849420 1.211094 24.639734 4.872147 7.332061 -16.213274 -4.729256 13.513479 -4.264520 -5.833262 24.995621 -81.144730 -87.834259 20.084887 -2.786825 -9.672129 29.261545 27.070711 -2.002362 -4.721501 2.840086 10.207639 24.997528 -30.206385 88.424385 -69.530693 0.168564 13.756328 41.039368 -35.630703 4.314744 -5.849805 -59.863106 41.338188 81.024208 124.849777 14.561958 4.118773 -22.977583 -3.863105 18.577072 -55.165756 -51.143097 -69.288239 117.680061 -1.688026 24.966169 23.254921 -2.367919 -11.698213 
-40.573311 8.075278 -11.044735 -47.817566 -6.651177 -2.989471 0.000000 0.000000 0.000000 44.468639 0.771328 1.152502 24.575737 4.716551 7.388797 -16.059595 -4.476154 13.332046 -4.299457 -5.827916 24.993429 -78.026321 -87.065399 16.667418 -4.876426 -9.353310 29.645350 26.551884 -1.111373 -4.491418 2.972457 10.108060 24.993902 -29.056322 88.462334 -68.632271 0.173801 13.621539 41.288589 -35.927151 4.195525 -5.844316 -59.897575 41.352989 81.341156 125.050652 14.601580 4.533319 -23.055214 -3.943517 18.890009 -55.338444 -51.147419 -69.284645 117.687462 -1.772770 24.567589 22.970633 -2.268945 -11.262977 
-40.565937 8.074737 -11.017734 -47.671535 -6.720145 -2.871952 0.000000 0.000000 0.000000 44.411045 0.800611 1.181798 24.531109 5.096248 7.216190 -15.733521 -5.130956 13.825931 -4.542712 -5.490627 24.993164 -78.303558 -87.170609 17.115057 -4.701443 -9.498816 29.200346 26.955612 -1.294044 -4.552685 3.567153 9.634992 24.994591 -22.901331 88.502548 -62.838745 0.185372 13.453129 41.473671 -36.516869 3.461802 -5.662051 -60.058899 41.318230 81.369499 125.097061 14.659818 4.533846 -23.315924 -3.957953 18.798958 -55.281502 -51.282585 -69.583855 117.764534 -1.839533 24.513371 22.838589 -2.243775 -11.169231 
-40.569019 8.100534 -11.010693 -47.523739 -6.700524 -2.891348 0.000000 0.000000 0.000000 44.292789 0.781097 1.132974 24.793833 4.921646 7.233937 -16.173754 -4.757158 13.543476 -4.373711 -5.691157 24.996822 -77.191132 -86.795769 16.047184 -5.067293 -9.567892 29.186594 26.933697 -1.107594 -4.512103 3.194772 9.975709 24.993893 -19.468472 88.581184 -59.254356 0.175226 13.527329 40.689587 -35.780544 4.676876 -5.973104 -59.961781 41.356709 81.530296 125.076225 14.649791 4.281840 -23.471703 -3.976666 18.757401 -55.475010 -51.235325 -69.493378 117.770973 -1.847850 24.628757 22.794142 -2.238764 -11.345358 
-40.585175 8.117921 -10.996682 -47.339352 -6.778316 -2.931292 0.000000 0.000000 0.000000 44.254524 0.781081 1.191562 24.669535 4.912697 7.165833 -15.856557 -4.750568 13.395909 -4.690386 -5.312559 24.992069 -75.178398 -86.606468 13.602624 -4.794747 -8.513546 34.254311 26.456928 0.033923 -4.235786 2.201021 10.661321 24.997707 -33.652248 88.760536 -72.885437 0.183818 13.669735 41.234547 -35.490318 4.703913 -5.971400 -60.169136 41.491402 81.479210 125.100594 14.668545 4.338412 -23.437046 -3.998490 18.867538 -55.528950 -51.112000 -69.666092 117.832085 -1.819451 24.919924 22.729811 -2.365177 -11.941086 
-40.584309 8.102260 -10.981532 -47.295433 -6.826960 -2.950688 0.000000 0.000000 0.000000 44.226589 0.800588 1.259916 24.802135 4.755708 7.349873 -16.060753 -4.122082 12.904613 -4.384071 -5.460101 25.000000 -78.323708 -85.993401 16.388237 -6.628861 -8.794951 31.001570 26.033329 -0.818293 -4.406306 3.505491 9.745358 24.995239 -14.387742 88.607162 -54.584892 0.205279 13.184599 41.379597 -35.791428 4.521842 -5.937185 -60.109722 41.492168 81.616180 125.117165 14.669692 4.247961 -23.881237 -4.066980 18.893629 -55.245777 -51.200104 -70.003143 117.788033 -1.905400 24.296450 22.445152 -2.138438 -11.066503 
-40.587074 8.098459 -10.962357 -47.171825 -6.807574 -2.931294 0.000000 0.000000 0.000000 44.206417 0.771298 1.259914 24.506279 4.884046 7.126078 -15.238700 -4.528725 13.058725 -4.672037 -5.282493 24.992428 -71.407700 -84.926338 11.457971 -10.375946 -9.517524 28.311722 25.901773 2.196151 -3.753980 3.287718 9.773242 24.998055 -16.911177 88.690247 -56.335163 0.292778 13.161877 41.654125 -36.359581 3.603470 -5.695901 -60.202427 41.478008 81.580849 125.019402 14.611062 4.216406 -24.018827 -4.122021 18.987543 -55.376934 -51.255493 -70.076057 117.829559 -1.976027 24.106119 22.265808 -2.080369 -10.814088 
-40.588547 8.116167 -10.959065 -47.114449 -6.739186 -2.950683 0.000000 0.000000 0.000000 44.215656 0.810380 1.162269 24.738424 4.563192 7.230681 -16.190769 -4.161453 12.826699 -4.566383 -5.555483 24.993914 -67.681847 -84.871040 7.316190 -9.033432 -8.667731 33.811295 25.723301 0.318152 -4.149338 2.501707 10.382630 24.994518 -24.053705 88.711517 -62.675816 0.226857 13.416443 42.050819 -36.602501 3.585029 -5.703371 -60.278969 41.401299 81.441719 124.903488 14.533121 4.286388 -24.072859 -4.204728 19.321335 -55.201035 -51.382217 -70.280304 117.869980 -2.014333 24.002724 22.099493 -2.012860 -10.549470 
-40.583035 8.102755 -10.943809 -47.038929 -6.699700 -3.029409 0.000000 0.000000 0.000000 44.234970 0.820152 1.132976 24.552017 4.280271 7.433594 -15.610203 -3.465438 12.170748 -4.082838 -5.598131 24.997391 -69.659233 -84.776115 10.895739 -11.221050 -9.615588 29.748823 26.071775 3.451773 -3.484674 2.942312 9.730452 24.993139 -24.774130 88.800682 -63.810379 0.221013 13.223512 42.137650 -36.451046 3.828444 -5.763280 -60.147881 41.414757 81.806656 124.964729 14.647131 4.001000 -24.387197 -4.170869 18.978775 -55.381905 -51.376301 -70.229546 117.911018 -2.064070 23.862627 21.924417 -1.994179 -10.486843 
-40.582214 8.102376 -10.935978 -47.035164 -6.739127 -2.960382 0.000000 0.000000 0.000000 44.325619 0.927540 1.172038 24.330101 4.126153 7.343777 -15.224810 -3.107718 11.726463 -4.228166 -5.332699 24.995134 -67.928047 -84.989670 9.147696 -10.164883 -9.282651 33.349705 26.978678 1.908453 -3.828768 2.565207 9.941381 24.995007 -28.480530 88.909470 -67.465149 0.360521 13.143483 42.769592 -36.435463 3.727729 -5.735799 -60.270779 41.380306 81.750244 125.107903 14.628682 4.380112 -24.471668 -4.278335 19.321041 -55.470833 -51.365784 -70.149605 117.898026 -2.052926 23.998400 21.961025 -2.025507 -10.675219 
-40.593975 8.102564 -10.932535 -46.969151 -6.836533 -2.980938 0.000000 0.000000 0.000000 44.258625 0.947047 1.230785 24.320395 4.213507 7.325017 -14.878305 -3.270153 11.737836 -4.109833 -5.170015 24.996641 -70.283562 -85.348511 13.159721 -10.313813 -10.727062 27.578966 29.298342 2.663284 -3.679235 2.237489 10.303331 24.992334 -32.837410 88.830299 -71.235039 0.303014 13.407618 42.667286 -36.541954 4.025930 -5.835461 -60.500259 41.482426 81.707169 125.279968 14.708228 4.450897 -24.661024 -4.288322 19.308205 -55.443947 -51.266098 -70.326645 117.896713 -2.081645 24.008026 21.874378 -2.038529 -10.749903 
